M48
; DRILL file {KiCad (7.0.0)} date Sun Mar  5 18:48:20 2023
; FORMAT={-:-/ absolute / metric / decimal}
; #@! TF.CreationDate,2023-03-05T18:48:20+00:00
; #@! TF.GenerationSoftware,Kicad,Pcbnew,(7.0.0)
; #@! TF.FileFunction,MixedPlating,1,2
FMAT,2
METRIC
; #@! TA.AperFunction,Plated,PTH,ViaDrill
T1C0.400
; #@! TA.AperFunction,Plated,PTH,ComponentDrill
T2C0.800
; #@! TA.AperFunction,Plated,PTH,ComponentDrill
T3C1.000
; #@! TA.AperFunction,NonPlated,NPTH,ComponentDrill
T4C0.900
; #@! TA.AperFunction,NonPlated,NPTH,ComponentDrill
T5C2.200
%
G90
G05
T1
X117.1Y-70.9
X117.1Y-83.4
X129.1Y-59.6
X131.9Y-96.9
X132.4Y-62.7
X134.6Y-76.2
X134.6Y-84.1
X135.145Y-56.155
X135.9Y-63.0
X136.0Y-57.0
X136.2Y-65.0
X138.3Y-59.0
X145.6Y-60.6
X145.8Y-76.2
X152.6Y-82.2
X152.975Y-69.5
X153.8Y-83.3
X154.4Y-77.2
X155.3Y-52.9
X155.9Y-84.5
X156.0Y-58.0
X156.185Y-68.989
X156.9Y-88.4
X157.0Y-69.568
X157.576Y-70.385
X158.36Y-71.045
X160.6Y-61.0
X161.0Y-80.022
X161.5Y-67.8
X161.9Y-97.1
X163.04Y-80.0
X164.9Y-68.6
X165.04Y-80.0
X167.124Y-79.977
X169.04Y-80.0
X171.04Y-80.0
X171.8Y-60.3
X173.0Y-62.6
X173.04Y-80.0
X175.04Y-80.0
X175.6Y-53.6
X177.04Y-80.0
X179.04Y-80.0
X181.04Y-80.0
X182.0Y-62.1
X183.04Y-80.0
X184.7Y-61.1
X184.9Y-65.5
X185.04Y-80.0
X187.04Y-80.0
X189.04Y-80.0
X190.8Y-54.9
X191.04Y-80.0
X195.4Y-88.3
T2
X125.0Y-52.0
X125.0Y-54.54
X125.0Y-57.08
X125.0Y-59.62
X125.0Y-62.16
X125.0Y-64.7
X125.0Y-67.24
X125.0Y-69.78
X125.0Y-72.32
X125.0Y-74.86
X125.0Y-77.4
X125.0Y-79.94
X125.0Y-82.48
X125.0Y-85.02
X125.0Y-87.56
X125.0Y-90.1
X125.0Y-92.64
X125.0Y-95.18
X125.0Y-97.72
X150.396Y-95.177
X150.396Y-97.717
X150.4Y-52.0
X150.4Y-54.54
X150.4Y-57.08
X150.4Y-59.62
X150.4Y-62.16
X150.4Y-64.7
X150.4Y-67.24
X150.4Y-69.78
X150.4Y-72.32
X150.4Y-74.86
X150.4Y-77.4
X150.4Y-79.94
X150.4Y-82.48
X150.4Y-85.02
X150.4Y-87.56
X150.4Y-90.1
X150.4Y-92.64
T3
X166.065Y-86.69
X166.065Y-89.23
X168.605Y-86.69
X168.605Y-89.23
X171.145Y-86.69
X171.145Y-89.23
X173.685Y-86.69
X173.685Y-89.23
X176.225Y-86.69
X176.225Y-89.23
X178.765Y-86.69
X178.765Y-89.23
X181.305Y-86.69
X181.305Y-89.23
X183.845Y-86.69
X183.845Y-89.23
X186.385Y-86.69
X186.385Y-89.23
X188.925Y-86.69
X188.925Y-89.23
T4
X197.7Y-65.3
X197.7Y-72.1
T5
X119.0Y-54.0
X119.0Y-96.0
X157.0Y-75.0
X196.0Y-54.0
X196.0Y-96.0
T0
M30
