M48
; DRILL file {KiCad (7.0.0)} date Thu Apr 27 20:35:25 2023
; FORMAT={-:-/ absolute / metric / decimal}
; #@! TF.CreationDate,2023-04-27T20:35:25+01:00
; #@! TF.GenerationSoftware,Kicad,Pcbnew,(7.0.0)
; #@! TF.FileFunction,MixedPlating,1,2
FMAT,2
METRIC
; #@! TA.AperFunction,Plated,PTH,ViaDrill
T1C0.400
; #@! TA.AperFunction,Plated,PTH,ComponentDrill
T2C0.800
; #@! TA.AperFunction,Plated,PTH,ComponentDrill
T3C1.000
; #@! TA.AperFunction,NonPlated,NPTH,ComponentDrill
T4C0.900
; #@! TA.AperFunction,NonPlated,NPTH,ComponentDrill
T5C2.200
%
G90
G05
T1
X117.1Y-70.9
X117.1Y-83.4
X129.1Y-59.6
X131.9Y-96.9
X132.4Y-62.7
X134.6Y-76.2
X134.6Y-84.1
X135.145Y-56.155
X135.9Y-63.0
X136.0Y-57.0
X136.2Y-65.0
X138.3Y-59.0
X145.8Y-76.2
X152.975Y-69.5
X153.12Y-81.96
X153.8Y-83.3
X154.4Y-77.2
X154.54Y-59.41
X155.3Y-52.9
X156.185Y-68.989
X156.43Y-84.69
X156.71Y-78.13
X157.0Y-69.568
X157.576Y-70.385
X158.36Y-71.045
X160.2Y-62.66
X163.05Y-79.92
X165.0Y-79.0
X167.01Y-79.92
X169.04Y-64.55
X171.19Y-79.81
X171.51Y-61.22
X172.48Y-64.86
X173.06Y-79.05
X174.86Y-79.82
X175.6Y-53.6
X176.86Y-65.79
X179.16Y-79.86
X181.06Y-79.04
X182.0Y-62.1
X182.86Y-79.84
X183.34Y-65.08
X184.7Y-61.1
X187.14Y-79.77
X188.98Y-78.98
X190.8Y-54.9
X190.85Y-79.8
X195.4Y-88.3
T2
X125.0Y-52.0
X125.0Y-54.54
X125.0Y-57.08
X125.0Y-59.62
X125.0Y-62.16
X125.0Y-64.7
X125.0Y-67.24
X125.0Y-69.78
X125.0Y-72.32
X125.0Y-74.86
X125.0Y-77.4
X125.0Y-79.94
X125.0Y-82.48
X125.0Y-85.02
X125.0Y-87.56
X125.0Y-90.1
X125.0Y-92.64
X125.0Y-95.18
X125.0Y-97.72
X150.396Y-95.177
X150.396Y-97.717
X150.4Y-52.0
X150.4Y-54.54
X150.4Y-57.08
X150.4Y-59.62
X150.4Y-62.16
X150.4Y-64.7
X150.4Y-67.24
X150.4Y-69.78
X150.4Y-72.32
X150.4Y-74.86
X150.4Y-77.4
X150.4Y-79.94
X150.4Y-82.48
X150.4Y-85.02
X150.4Y-87.56
X150.4Y-90.1
X150.4Y-92.64
T3
X166.065Y-86.69
X166.065Y-89.23
X168.605Y-86.69
X168.605Y-89.23
X171.145Y-86.69
X171.145Y-89.23
X173.685Y-86.69
X173.685Y-89.23
X176.225Y-86.69
X176.225Y-89.23
X178.765Y-86.69
X178.765Y-89.23
X181.305Y-86.69
X181.305Y-89.23
X183.845Y-86.69
X183.845Y-89.23
X186.385Y-86.69
X186.385Y-89.23
X188.925Y-86.69
X188.925Y-89.23
T4
X197.7Y-65.3
X197.7Y-72.1
T5
X119.0Y-54.0
X119.0Y-96.0
X157.0Y-75.0
X196.0Y-54.0
X196.0Y-96.0
T0
M30
