%TF.GenerationSoftware,KiCad,Pcbnew,(7.0.0)*%
%TF.CreationDate,2023-04-27T20:35:20+01:00*%
%TF.ProjectId,ADS131M08 ESP32,41445331-3331-44d3-9038-204553503332,rev?*%
%TF.SameCoordinates,Original*%
%TF.FileFunction,Soldermask,Bot*%
%TF.FilePolarity,Negative*%
%FSLAX46Y46*%
G04 Gerber Fmt 4.6, Leading zero omitted, Abs format (unit mm)*
G04 Created by KiCad (PCBNEW (7.0.0)) date 2023-04-27 20:35:20*
%MOMM*%
%LPD*%
G01*
G04 APERTURE LIST*
%ADD10C,2.200000*%
%ADD11R,1.700000X1.700000*%
%ADD12O,1.700000X1.700000*%
%ADD13R,2.000000X1.200000*%
%ADD14O,2.000000X1.200000*%
%ADD15C,0.900000*%
G04 APERTURE END LIST*
D10*
%TO.C,H5*%
X157000000Y-75000000D03*
%TD*%
%TO.C,H2*%
X119000000Y-96000000D03*
%TD*%
%TO.C,H1*%
X119000000Y-54000000D03*
%TD*%
D11*
%TO.C,J2*%
X188924999Y-86689999D03*
D12*
X188924999Y-89229999D03*
X186384999Y-86689999D03*
X186384999Y-89229999D03*
X183844999Y-86689999D03*
X183844999Y-89229999D03*
X181304999Y-86689999D03*
X181304999Y-89229999D03*
X178764999Y-86689999D03*
X178764999Y-89229999D03*
X176224999Y-86689999D03*
X176224999Y-89229999D03*
X173684999Y-86689999D03*
X173684999Y-89229999D03*
X171144999Y-86689999D03*
X171144999Y-89229999D03*
X168604999Y-86689999D03*
X168604999Y-89229999D03*
X166064999Y-86689999D03*
X166064999Y-89229999D03*
%TD*%
D13*
%TO.C,U2*%
X124999999Y-51999999D03*
D14*
X124999999Y-54539999D03*
X124999999Y-57079999D03*
X124999999Y-59619999D03*
X124999999Y-62159999D03*
X124999999Y-64699999D03*
X124999999Y-67239999D03*
X124999999Y-69779999D03*
X124999999Y-72319999D03*
X124999999Y-74859999D03*
X124999999Y-77399999D03*
X124999999Y-79939999D03*
X124999999Y-82479999D03*
X124999999Y-85019999D03*
X124999999Y-87559999D03*
X124999999Y-90099999D03*
X124999999Y-92639999D03*
X124999999Y-95179999D03*
X124999999Y-97719999D03*
X150396319Y-97717279D03*
X150396319Y-95177279D03*
X150399999Y-92639999D03*
X150399999Y-90099999D03*
X150399999Y-87559999D03*
X150399999Y-85019999D03*
X150399999Y-82479999D03*
X150399999Y-79939999D03*
X150399999Y-77399999D03*
X150399999Y-74859999D03*
X150399999Y-72319999D03*
X150399999Y-69779999D03*
X150399999Y-67239999D03*
X150399999Y-64699999D03*
X150399999Y-62159999D03*
X150399999Y-59619999D03*
X150399999Y-57079999D03*
X150399999Y-54539999D03*
X150399999Y-51999999D03*
%TD*%
D10*
%TO.C,H3*%
X196000000Y-54000000D03*
%TD*%
D15*
%TO.C,SW1*%
X197700000Y-72100000D03*
X197700000Y-65300000D03*
%TD*%
D10*
%TO.C,H4*%
X196000000Y-96000000D03*
%TD*%
M02*
